<svg width="91" height="27" viewBox="0 0 91 27" fill="none" xmlns="http://www.w3.org/2000/svg">
<g clip-path="url(#clip0)">
<path d="M83.4337 13.1H80.264C78.2191 13.1 77.0944 14.6 77.0944 17.2V26.5H70.9595V13.1H68.4034C66.3584 13.1 65.2337 14.6 65.2337 17.2V26.5H59.0989V8.1H65.2337V10.9C66.2562 8.7 67.5854 8.1 69.6303 8.1H77.0944V10.9C78.1169 8.7 79.4461 8.1 81.491 8.1H83.5359L83.4337 13.1ZM57.6674 18.7H44.9888C45.2955 20.8 46.6247 21.9 48.7719 21.9C50.4079 21.9 51.5326 21.2 51.9416 20.1L57.3607 21.6C56.0315 24.8 52.7596 26.7 48.7719 26.7C42.1258 26.7 39.0584 21.6 39.0584 17.2C39.0584 12.9 41.7169 7.8 48.3629 7.8C55.418 7.8 57.7697 13 57.7697 16.9C57.7697 17.8 57.7697 18.3 57.6674 18.7ZM51.8393 15.2C51.7371 13.6 50.5101 12.2 48.4652 12.2C46.5225 12.2 45.3978 13 44.9888 15.2H51.8393ZM28.4247 26.5H33.7416L40.4899 8.2H34.3551L31.0831 18.9L27.8112 8.1H21.6764L28.4247 26.5ZM3.47641 26.5H9.50899V13.1H15.3371V26.5H21.3697V8.1H9.50899V7C9.50899 5.8 10.4292 5 11.7584 5H15.3371V0H10.8382C6.44158 0 3.47641 2.7 3.47641 6.6V8.1H0V13.1H3.47641V26.5Z" fill="#404145"/>
<path d="M87.2169 27.0001C89.2618 27.0001 91 25.3001 91 23.3001C91 21.3001 89.2618 19.6001 87.2169 19.6001C85.1719 19.6001 83.4337 21.3001 83.4337 23.3001C83.4337 25.3001 85.1719 27.0001 87.2169 27.0001Z" fill="#1DBF73"/>
</g>
<defs>
<clipPath id="clip0">
<rect width="91" height="27" fill="white"/>
</clipPath>
</defs>
</svg>
