<svg width="100" height="32" viewBox="0 0 100 32" fill="none" xmlns="http://www.w3.org/2000/svg">
<path d="M64.755 6.93828C60.3602 6.95916 56.7802 10.5331 56.8004 14.9832C56.8206 19.4332 60.4364 22.9736 64.8311 22.9536C69.2258 22.9336 72.8068 19.3587 72.7857 14.9105C72.7646 10.4623 69.1497 6.91922 64.7531 6.9401L64.755 6.93828ZM64.8155 19.6901C63.5696 19.6973 62.3723 19.2135 61.4869 18.3465C60.6015 17.4796 60.1107 16.2986 60.0969 15.0658C60.0831 13.833 60.5786 12.6483 61.4548 11.7723C62.331 10.8963 63.5246 10.4106 64.7706 10.397C66.0165 10.3834 67.2138 10.8736 68.0992 11.7405C68.9845 12.6075 69.4754 13.7885 69.4892 15.0213C69.502 17.495 67.3147 19.6783 64.8155 19.691V19.6901ZM82.5596 10.7102C80.2613 10.7211 78.4713 12.6075 78.4823 14.8815L78.519 22.4934L75.0216 22.5097L74.9509 7.3831L78.4484 7.36676L78.4603 9.73883C78.4603 9.73883 79.9466 7.36041 82.9449 7.34679L83.945 7.34134L83.9615 10.702L82.5596 10.7102ZM47.6715 7.51201L50.3193 17.8808L53.0681 7.48659L56.5655 7.47116L52.2387 22.6268L48.8422 22.6422L46.0952 12.0773L43.4474 22.6667L40.0499 22.6822L35.4827 7.57646L38.8792 7.56103L41.9253 17.928L44.3749 7.53561L47.6715 7.51201ZM94.1648 14.217C96.5549 12.8226 98.243 10.2436 98.2293 7.2778L94.7318 7.29414C94.7447 9.86501 92.6547 11.9511 90.1573 11.9602L89.6572 11.962L89.6022 0L86.1048 0.01634L86.2121 22.457L89.7077 22.4416L89.6747 15.3245L90.0738 15.3227C90.4738 15.3209 90.8747 15.5169 90.9766 15.8129L95.9035 22.4126L100 22.3944L94.1648 14.217Z" fill="#4B4B4B"/>
<path d="M27.3868 7.737C23.5912 7.75602 20.7048 10.359 19.6249 14.5064C17.8129 11.6153 16.3991 8.30856 15.588 5.51636L11.5924 5.53538L11.6419 16.513C11.6463 17.5568 11.2507 18.5596 10.5421 19.3011C9.83343 20.0426 8.86973 20.4621 7.86282 20.4674C6.8559 20.472 5.88844 20.0619 5.17308 19.3273C4.45773 18.5928 4.05303 17.5939 4.04793 16.5501L3.99747 5.57247L0 5.59149L0.0495444 16.5692C0.0706464 21.1246 3.58185 24.7346 7.87933 24.7128C12.1768 24.6909 15.6577 21.0494 15.6376 16.4931L15.6284 14.6291C16.4339 16.281 17.4413 18.0366 18.5487 19.5858L16.1055 31.7142L20.2011 31.6952L21.9627 22.883C23.5655 23.912 25.3574 24.5235 27.4639 24.5131C31.8605 24.4912 35.4414 20.747 35.4185 15.9824C35.4017 13.7872 34.5479 11.6879 33.0433 10.143C31.5387 8.59798 29.5056 7.73271 27.3877 7.73605L27.3868 7.737ZM27.4437 20.2686C25.8455 20.2762 24.2445 19.5592 22.9407 18.4256L23.3325 16.7679V16.6728C23.6261 14.9096 24.5087 11.9025 27.507 11.8892C28.5642 11.8874 29.5793 12.3184 30.3314 13.0886C31.0835 13.8587 31.5117 14.9056 31.5228 16.0014C31.4329 18.3837 29.5438 20.2572 27.4446 20.2677L27.4437 20.2686Z" fill="#6FDA44"/>
</svg>
