<svg width="22" height="22" viewBox="0 0 22 22" fill="none" xmlns="http://www.w3.org/2000/svg">
<path d="M8.0366 20.3544H1.7556C0.908601 20.3544 0.220001 19.6438 0.220001 18.7704V1.75783C0.220001 0.886625 0.908601 0.176025 1.7556 0.176025H17.743C18.59 0.176025 19.2786 0.886625 19.2786 1.76003V8.21263H17.743V1.75783L1.7556 1.70943V18.7704L8.0344 18.821V20.3544H8.0366Z" fill="#F6898A"/>
<path d="M3.9644 3.90503H14.7642V5.44063H3.9644V3.90503Z" fill="#F6898A"/>
<path d="M3.9644 7.63184H12.672V9.16743H3.9644V7.63184Z" fill="#F6898A"/>
<path d="M3.9644 11.3608H9.8076V12.8964H3.9644V11.3608Z" fill="#F6898A"/>
<path d="M3.9644 15.0898H9.8076V16.6254H3.9644V15.0898Z" fill="#F6898A"/>
<path d="M21.7338 19.5492L19.4106 15.2174C19.6526 14.6762 19.789 14.0822 19.7912 13.4552C19.8022 11.0352 17.8464 9.06402 15.4242 9.05522C13.002 9.04422 11.0308 11 11.022 13.4222C11.0176 14.0668 11.1628 14.6696 11.407 15.2218L9.04201 19.4964C8.96501 19.6328 8.97821 19.8044 9.07061 19.9276C9.16301 20.0552 9.32361 20.1124 9.47761 20.0772L11.4818 19.624L12.1616 21.5358C12.2122 21.6832 12.3486 21.7866 12.5026 21.802C12.5158 21.7998 12.5246 21.802 12.5356 21.802C12.6808 21.8042 12.8172 21.7228 12.8876 21.5952L14.9556 17.7804C15.1008 17.7958 15.2416 17.8244 15.389 17.8266C15.5254 17.8266 15.6552 17.8002 15.7916 17.787L17.875 21.6172C17.9454 21.7492 18.0796 21.8284 18.227 21.8262C18.2358 21.8284 18.2468 21.8284 18.2556 21.8262C18.4118 21.813 18.546 21.7118 18.6032 21.5666L19.294 19.6592L21.2916 20.1256C21.4434 20.163 21.6018 20.1036 21.6986 19.9804C21.7932 19.855 21.8064 19.6856 21.7338 19.5492ZM12.5202 19.019L12.2716 18.3172C12.2386 18.2226 12.1374 18.1654 12.0384 18.1874L11.2926 18.3546L12.3442 16.4626C12.7314 16.8542 13.0482 17.0236 13.4794 17.2634L12.5202 19.019ZM15.3912 16.225C13.849 16.2162 12.5972 14.9578 12.6038 13.4134C12.6082 11.8712 13.8688 10.6194 15.4132 10.626C16.9576 10.6304 18.205 11.891 18.2006 13.4332C18.1962 14.9754 16.9334 16.2272 15.3912 16.225ZM18.8254 18.4932C18.7088 18.4646 18.59 18.5328 18.5482 18.6428L18.2512 19.4722L17.1226 17.3976C17.633 17.1182 18.0048 16.9136 18.4624 16.456L19.6988 18.6912L18.8254 18.4932Z" fill="#F6898A"/>
</svg>
