<svg width="103" height="34" viewBox="0 0 103 34" fill="none" xmlns="http://www.w3.org/2000/svg">
<path d="M9.74507 31C6.79919 31 4.43197 30.2288 2.6434 28.6863C0.881133 27.1438 0 24.5948 0 21.0392C0 17.8235 0.723318 14.8431 2.16995 12.098C3.64289 9.3268 5.62873 7.11765 8.12747 5.47059C10.6262 3.82353 13.3748 3 16.3733 3C19.2403 3 21.5549 3.78431 23.3171 5.35294C25.1057 6.89542 26 9.10458 26 11.9804C26 13.915 25.5923 15.7582 24.7769 17.5098C23.9879 19.2614 22.9358 20.6732 21.6206 21.7451C20.3318 22.7908 18.9641 23.3137 17.5175 23.3137C16.6495 23.3137 15.9393 23.1046 15.3869 22.6863C14.8609 22.2418 14.5716 21.6274 14.519 20.8431C13.0986 22.7516 11.5862 23.7059 9.98179 23.7059C8.9823 23.7059 8.20637 23.366 7.65402 22.6863C7.10167 21.9804 6.82549 20.9739 6.82549 19.6667C6.82549 18.1503 7.18058 16.634 7.89074 15.1176C8.60091 13.5752 9.50835 12.3072 10.6131 11.3137C11.7178 10.3203 12.8488 9.82353 14.0061 9.82353C14.4006 9.82353 14.7557 9.90196 15.0713 10.0588C15.3869 10.2157 15.7157 10.4902 16.0577 10.8824L16.7284 9.90196L19.6874 10.2157L17.8725 17.1176C17.8462 17.2484 17.741 17.6275 17.5569 18.2549C17.3991 18.8824 17.3202 19.4052 17.3202 19.8235C17.3202 20.1634 17.3728 20.451 17.478 20.6863C17.6095 20.9216 17.8199 21.0392 18.1093 21.0392C18.6353 21.0392 19.2534 20.6078 19.9636 19.7451C20.6737 18.8824 21.2787 17.7712 21.7785 16.4118C22.2782 15.0261 22.5281 13.5882 22.5281 12.098C22.5281 10.0588 22.0152 8.50327 20.9894 7.43137C19.9899 6.35948 18.5564 5.82353 16.6889 5.82353C14.4532 5.82353 12.3227 6.54248 10.2974 7.98039C8.27213 9.39216 6.64138 11.2614 5.40516 13.5882C4.19525 15.8889 3.59029 18.2941 3.59029 20.8039C3.59029 23.2353 4.11634 25.0131 5.16844 26.1373C6.22054 27.2614 7.82499 27.8235 9.98179 27.8235C11.5862 27.8235 13.0855 27.5098 14.4795 26.8824C15.8735 26.2549 16.9914 25.4052 17.8331 24.3333C18.1487 24.4902 18.3986 24.7386 18.5827 25.0784C18.7931 25.4183 18.8983 25.8497 18.8983 26.3725C18.8983 27.3922 18.3986 28.2418 17.3991 28.9216C16.4259 29.6274 15.2291 30.1503 13.8088 30.4902C12.3885 30.8301 11.0339 31 9.74507 31ZM11.6783 21C12.0728 21 12.4674 20.8824 12.8619 20.6471C13.2828 20.4118 13.5852 20.1242 13.7693 19.7843L15.742 12.3725C15.4527 12.1111 15.1765 11.9804 14.9135 11.9804C14.2822 11.9804 13.6247 12.3856 12.9408 13.1961C12.2833 13.9804 11.7309 14.9477 11.2838 16.098C10.8366 17.2484 10.6131 18.3333 10.6131 19.3529C10.6131 20.451 10.9681 21 11.6783 21Z" fill="#F15152"/>
<path d="M34.4318 27H46.4432L46.7216 25.3295H36.5696L37.8423 17.6435H47.169L47.4474 15.973H38.1207L39.3935 8.30682H49.3466L49.625 6.63636H37.8125L34.4318 27ZM50.6889 27H52.4588L54.0895 17.2159C54.4773 14.8395 56.3764 13.1491 58.4943 13.1491C60.5923 13.1491 61.527 14.5412 61.1989 16.6094L59.4588 27H61.2685L62.9489 16.9474C63.3068 14.7401 64.9077 13.1491 67.2443 13.1491C69.2628 13.1491 70.3565 14.3523 69.9787 16.7685L68.2685 27H70.0384L71.7486 16.7685C72.3253 13.358 70.8537 11.5284 68.0298 11.5284C65.8026 11.5284 63.9929 12.6023 63.0384 14.3026H62.9091C62.5114 12.5724 61.348 11.5284 59.25 11.5284C57.2514 11.5284 55.6009 12.4929 54.7159 14.0739H54.5568L54.9545 11.7273H53.2344L50.6889 27ZM78.9499 27.348C81.4954 27.348 83.2852 25.9361 84.1303 24.5838H84.2397L83.832 27H85.6019L87.332 16.6293C88.0082 12.5327 85.1048 11.5185 82.7681 11.5185C80.4315 11.5185 77.8462 12.4432 76.4144 14.9389L77.9854 15.5455C78.761 14.2429 80.4315 13.1094 82.6388 13.1094C84.9457 13.1094 85.9201 14.392 85.582 16.4702L85.5224 16.8281C85.3235 17.9716 83.8817 18.0014 81.2866 18.3196C77.7567 18.7372 75.1815 19.7116 74.6644 22.7344C74.207 25.6776 76.1758 27.348 78.9499 27.348ZM79.3974 25.7273C77.3988 25.7273 76.136 24.6634 76.4442 22.8139C76.7525 20.9645 78.4031 20.1889 81.0479 19.8707C82.2908 19.7216 84.5678 19.4432 85.1644 18.9361L84.7965 21.1435C84.3888 23.6491 82.2212 25.7273 79.3974 25.7273ZM90.3299 27H92.1097L94.6552 11.7273H92.8754L90.3299 27ZM94.4066 9.07244C95.1225 9.07244 95.729 8.50568 95.7489 7.82954C95.7688 7.11364 95.1722 6.52699 94.4364 6.52699C93.7205 6.52699 93.114 7.09375 93.0941 7.76989C93.0742 8.48579 93.6609 9.07244 94.4066 9.07244ZM101.941 6.63636H100.171L96.7905 27H98.5604L101.941 6.63636Z" fill="#2D0B0B"/>
</svg>
